#!OML:ASF H:\LiuWeirdWalks\Patient Classification 1\Patient 1\Session 1\male.ASF
:FULLY-SPECIFIED
:DEGREES
1071
root 3.28508 18.1795 28.0129 2.76657 -3.11686 -4.35342
lowerback 2.63433 0.0845883 2.2992
upperback -0.815006 0.257375 2.89627
thorax -2.31865 0.116223 1.67501
lowerneck -15.3571 0.111836 3.31461
upperneck 21.9535 0.542157 -5.14761
head 9.48182 -0.0543128 -2.27332
rclavicle -9.92681e-015 -3.45885e-014
rhumerus -39.8745 -11.4551 -76.1358
rradius 31.8211
rwrist -7.5247
rhand -17.315 -1.74105
rfingers 7.12502
rthumb 8.93136 -31.532
lclavicle -9.92681e-015 -3.45885e-014
lhumerus -36.2331 -3.84238 87.2679
lradius 34.6149
lwrist 11.2175
lhand -13.057 -2.14004
lfingers 7.12502
lthumb 13.0383 27.4325
rfemur -5.37961 -3.43085 17.4914
rtibia 56.8236
rfoot 15.8663 -6.6511
rtoes 9.28834
lfemur -14.2014 4.75904 -18.7151
ltibia 23.9803
lfoot -9.12 8.20936
ltoes 2.88118
1072
root 3.30078 18.1802 28.0762 2.61826 -3.00052 -4.36652
lowerback 2.76892 0.259137 2.63046
upperback -0.807376 0.503989 2.71491
thorax -2.38514 0.232786 1.29077
lowerneck -15.4083 -0.125217 3.01026
upperneck 22.0669 0.215398 -4.82988
head 9.51527 -0.196558 -2.15432
rclavicle -6.85807e-015 -7.55382e-015
rhumerus -40.0383 -11.9337 -76.1304
rradius 32.0684
rwrist -7.59063
rhand -17.317 -1.79229
rfingers 7.12502
rthumb 8.92948 -31.5833
lclavicle -6.85807e-015 -7.55382e-015
lhumerus -36.1554 -4.45186 87.3536
lradius 34.5668
lwrist 11.3304
lhand -13.1197 -2.18074
lfingers 7.12502
lthumb 12.9778 27.3956
rfemur -6.07871 -3.76252 17.4152
rtibia 58.0286
rfoot 15.5149 -6.78537
rtoes 9.20437
lfemur -13.7966 4.71219 -18.7498
ltibia 23.9267
lfoot -9.15079 8.14386
ltoes 2.98858
1073
root 3.3156 18.1804 28.1387 2.46617 -2.87607 -4.37481
lowerback 2.89734 0.386843 2.87184
upperback -0.790988 0.685638 2.57469
thorax -2.43667 0.318435 1.00187
lowerneck -15.4481 -0.302498 2.79211
upperneck 22.1496 -0.028971 -4.60293
head 9.54133 -0.30317 -2.07071
rclavicle 1.26104e-014 -2.34566e-014
rhumerus -40.1563 -12.2772 -76.154
rradius 32.3102
rwrist -7.64871
rhand -17.3475 -1.77277
rfingers 7.12502
rthumb 8.90002 -31.5651
lclavicle 1.26104e-014 -2.34566e-014
lhumerus -36.0888 -4.92008 87.4185
lradius 34.5159
lwrist 11.434
lhand -13.198 -2.24285
lfingers 7.12502
lthumb 12.9023 27.3383
rfemur -6.77071 -4.10458 17.339
rtibia 59.183
rfoot 15.0535 -6.92048
rtoes 9.04371
lfemur -13.3983 4.67708 -18.7879
ltibia 23.89
lfoot -9.20252 8.06447
ltoes 3.00349
1074
root 3.32882 18.1802 28.1993 2.31694 -2.75152 -4.43913
lowerback 3.04428 0.506581 3.14017
upperback -0.780773 0.860016 2.4625
thorax -2.50279 0.399901 0.726515
lowerneck -15.4643 -0.475095 2.5702
upperneck 22.1994 -0.265359 -4.38016
head 9.55299 -0.406481 -1.98619
rclavicle 1.6437e-014 8.34896e-015
rhumerus -40.2879 -12.5979 -76.1698
rradius 32.5698
rwrist -7.71058
rhand -17.3946 -1.72099
rfingers 7.12502
rthumb 8.85459 -31.5152
lclavicle 1.6437e-014 8.34896e-015
lhumerus -36.038 -5.36627 87.488
lradius 34.473
lwrist 11.5187
lhand -13.2571 -2.28136
lfingers 7.12502
lthumb 12.8454 27.3034
rfemur -7.46791 -4.42621 17.346
rtibia 60.2836
rfoot 14.5051 -7.10022
rtoes 8.75595
lfemur -13.0159 4.64895 -18.7562
ltibia 23.8703
lfoot -9.26418 7.97976
ltoes 2.91418
1075
root 3.34173 18.1798 28.2589 2.18037 -2.62698 -4.47139
lowerback 3.16592 0.546752 3.22941
upperback -0.76195 0.921503 2.41385
thorax -2.54909 0.428428 0.622296
lowerneck -15.4639 -0.547771 2.47136
upperneck 22.2187 -0.363272 -4.28636
head 9.55642 -0.449558 -1.9494
rclavicle 1.15792e-014 -1.51076e-014
rhumerus -40.3284 -12.6685 -76.2545
rradius 32.8102
rwrist -7.77392
rhand -17.4577 -1.64116
rfingers 7.12502
rthumb 8.79367 -31.438
lclavicle 1.15792e-014 -1.51076e-014
lhumerus -36.0091 -5.53037 87.5021
lradius 34.4476
lwrist 11.5561
lhand -13.319 -2.32234
lfingers 7.12502
lthumb 12.7856 27.2661
rfemur -8.1866 -4.74805 17.3248
rtibia 61.3448
rfoot 13.8905 -7.29961
rtoes 8.32377
lfemur -12.6473 4.61585 -18.7598
ltibia 23.8421
lfoot -9.32952 7.9007
ltoes 2.81275
1076
root 3.35372 18.1789 28.3168 2.05431 -2.504 -4.49347
lowerback 3.26861 0.480792 3.09894
upperback -0.733705 0.833549 2.46521
thorax -2.58136 0.386839 0.751874
lowerneck -15.4529 -0.493025 2.51098
upperneck 22.2078 -0.279969 -4.35586
head 9.5535 -0.415279 -1.96957
rclavicle 6.8705e-015 -2.06736e-014
rhumerus -40.2472 -12.3855 -76.4317
rradius 33.0167
rwrist -7.85534
rhand -17.5218 -1.59
rfingers 7.12502
rthumb 8.73179 -31.3894
lclavicle 6.8705e-015 -2.06736e-014
lhumerus -36.0091 -5.31864 87.4493
lradius 34.432
lwrist 11.5668
lhand -13.3931 -2.39947
lfingers 7.12502
lthumb 12.7142 27.1935
rfemur -8.92519 -5.05887 17.3085
rtibia 62.3608
rfoot 13.2306 -7.53092
rtoes 7.77888
lfemur -12.2903 4.57337 -18.7714
ltibia 23.8029
lfoot -9.39128 7.83508
ltoes 2.69267
1077
root 3.36556 18.178 28.3727 1.96614 -2.39165 -4.4105
lowerback 3.33472 0.347953 2.72334
upperback -0.702443 0.644776 2.55589
thorax -2.59293 0.299309 1.06519
lowerneck -15.4601 -0.350684 2.64008
upperneck 22.1935 -0.0729901 -4.52778
head 9.55764 -0.327843 -2.02522
rclavicle 1.52567e-014 1.59028e-014
rhumerus -40.0678 -11.8802 -76.667
rradius 33.1923
rwrist -7.93385
rhand -17.5737 -1.55928
rfingers 7.12502
rthumb 8.68177 -31.3608
lclavicle 1.52567e-014 1.59028e-014
lhumerus -36.015 -4.83471 87.3462
lradius 34.4303
lwrist 11.534
lhand -13.4594 -2.47028
lfingers 7.12502
lthumb 12.6503 27.1266
rfemur -9.73077 -5.35983 17.1893
rtibia 63.3401
rfoot 12.5404 -7.76837
rtoes 7.12128
lfemur -11.9767 4.50689 -18.9008
ltibia 23.7416
lfoot -9.43872 7.80417
ltoes 2.65345
1078
root 3.37735 18.1765 28.4287 1.87329 -2.27352 -4.29118
lowerback 3.39093 0.206222 2.30153
upperback -0.667501 0.440993 2.64207
thorax -2.59234 0.204961 1.40123
lowerneck -15.4673 -0.192331 2.79765
upperneck 22.1965 0.154876 -4.72187
head 9.56945 -0.230857 -2.09112
rclavicle -4.1869e-015 5.1684e-015
rhumerus -39.8844 -11.3455 -76.9031
rradius 33.3542
rwrist -8.01347
rhand -17.6081 -1.54756
rfingers 7.12502
rthumb 8.64854 -31.3504
lclavicle -4.1869e-015 5.1684e-015
lhumerus -36.0301 -4.32802 87.2443
lradius 34.4421
lwrist 11.5067
lhand -13.5046 -2.49789
lfingers 7.12502
lthumb 12.6068 27.1017
rfemur -10.5218 -5.66748 17.0294
rtibia 64.2553
rfoot 11.837 -7.98848
rtoes 6.44886
lfemur -11.6548 4.43406 -19.0724
ltibia 23.6745
lfoot -9.49752 7.78075
ltoes 2.55805
1079
root 3.38794 18.1746 28.483 1.78997 -2.16394 -4.16446
lowerback 3.45151 0.0267074 1.78313
upperback -0.633465 0.183218 2.76503
thorax -2.59118 0.0852429 1.8331
lowerneck -15.4696 0.0152644 3.00479
upperneck 22.1969 0.451482 -4.96814
head 9.58363 -0.10368 -2.17494
rclavicle 8.44835e-016 -1.94809e-014
rhumerus -39.6597 -10.6805 -77.1696
rradius 33.4934
rwrist -8.10159
rhand -17.6235 -1.61272
rfingers 7.12502
rthumb 8.63372 -31.4162
lclavicle 8.44835e-016 -1.94809e-014
lhumerus -36.0624 -3.67964 87.1147
lradius 34.4641
lwrist 11.444
lhand -13.5327 -2.51587
lfingers 7.12502
lthumb 12.5797 27.0854
rfemur -11.3326 -5.94897 16.8838
rtibia 65.1046
rfoot 11.1616 -8.22329
rtoes 5.87676
lfemur -11.3512 4.3589 -19.2478
ltibia 23.6065
lfoot -9.55306 7.77215
ltoes 2.34083
1080
root 3.39806 18.1721 28.5379 1.68224 -2.04435 -4.09647
lowerback 3.54882 0.0292741 1.67958
upperback -0.614142 0.18406 2.72963
thorax -2.62615 0.0869115 1.85476
lowerneck -15.5073 0.000241001 2.97195
upperneck 22.2571 0.431619 -4.932
head 9.61091 -0.112095 -2.16065
rclavicle 9.70318e-015 3.18055e-014
rhumerus -39.6575 -10.6375 -77.2611
rradius 33.6765
rwrist -8.17167
rhand -17.6273 -1.672
rfingers 7.12502
rthumb 8.62997 -31.4756
lclavicle 9.70318e-015 3.18055e-014
lhumerus -36.0538 -3.70944 87.1253
lradius 34.4777
lwrist 11.4382
lhand -13.5214 -2.4736
lfingers 7.12502
lthumb 12.5906 27.127
rfemur -12.0905 -6.22848 16.8063
rtibia 65.8609
rfoot 10.5117 -8.46174
rtoes 5.45411
lfemur -11.0271 4.28323 -19.3571
ltibia 23.5604
lfoot -9.63204 7.76453
ltoes 1.95682
1081
root 3.4072 18.1691 28.5927 1.56287 -1.92001 -4.04752
lowerback 3.65156 0.0316012 1.59624
upperback -0.592389 0.185427 2.6964
thorax -2.66163 0.0885624 1.86727
lowerneck -15.5258 -0.00998938 2.95786
upperneck 22.308 0.415675 -4.90408
head 9.63155 -0.117772 -2.15158
rclavicle 2.98177e-015 3.97569e-016
rhumerus -39.6738 -10.6025 -77.3465
rradius 33.8706
rwrist -8.25571
rhand -17.6409 -1.72156
rfingers 7.12502
rthumb 8.61685 -31.5257
lclavicle 2.98177e-015 3.97569e-016
lhumerus -36.0584 -3.75747 87.1406
lradius 34.5013
lwrist 11.4409
lhand -13.4854 -2.40184
lfingers 7.12502
lthumb 12.6252 27.1966
rfemur -12.8228 -6.49992 16.761
rtibia 66.53
rfoot 9.90068 -8.71412
rtoes 5.1672
lfemur -10.7065 4.2148 -19.4416
ltibia 23.5446
lfoot -9.73227 7.7585
ltoes 1.41645
1082
root 3.41497 18.1656 28.6469 1.43156 -1.79017 -4.04261
lowerback 3.77105 0.0373138 1.55611
upperback -0.572847 0.194049 2.67399
thorax -2.7089 0.0932469 1.86631
lowerneck -15.5183 -0.0255333 2.94107
upperneck 22.3372 0.392101 -4.87312
head 9.63929 -0.126508 -2.14134
rclavicle -7.42958e-015 3.4191e-014
rhumerus -39.7097 -10.5908 -77.4108
rradius 34.0425
rwrist -8.33456
rhand -17.6452 -1.7367
rfingers 7.12502
rthumb 8.61276 -31.541
lclavicle -7.42958e-015 3.4191e-014
lhumerus -36.0774 -3.83786 87.1694
lradius 34.531
lwrist 11.4472
lhand -13.4367 -2.30939
lfingers 7.12502
lthumb 12.6722 27.2862
rfemur -13.527 -6.7575 16.7806
rtibia 67.1074
rfoot 9.30657 -8.99461
rtoes 4.94927
lfemur -10.3924 4.15036 -19.4706
ltibia 23.5624
lfoot -9.85041 7.75499
ltoes 0.735035
